{"asset":{"version":"2.0","generator":"Blockbench 5.1.4 glTF exporter"},"scenes":[{"nodes":[3],"name":"blockbench_export"}],"scene":0,"nodes":[{"translation":[0,0.1875,0],"name":"cylinder","mesh":0},{"translation":[0,0.3125,0],"name":"cylinder","mesh":1},{"name":"cylinder","mesh":2},{"name":"root","children":[0,1,2]}],"bufferViews":[{"buffer":0,"byteOffset":0,"byteLength":2400,"target":34962,"byteStride":12},{"buffer":0,"byteOffset":2400,"byteLength":2400,"target":34962,"byteStride":12},{"buffer":0,"byteOffset":4800,"byteLength":1600,"target":34962,"byteStride":8},{"buffer":0,"byteOffset":6400,"byteLength":480,"target":34963},{"buffer":0,"byteOffset":6880,"byteLength":2400,"target":34962,"byteStride":12},{"buffer":0,"byteOffset":9280,"byteLength":2400,"target":34962,"byteStride":12},{"buffer":0,"byteOffset":11680,"byteLength":1600,"target":34962,"byteStride":8},{"buffer":0,"byteOffset":13280,"byteLength":480,"target":34963},{"buffer":0,"byteOffset":13760,"byteLength":2400,"target":34962,"byteStride":12},{"buffer":0,"byteOffset":16160,"byteLength":2400,"target":34962,"byteStride":12},{"buffer":0,"byteOffset":18560,"byteLength":1600,"target":34962,"byteStride":8},{"buffer":0,"byteOffset":20160,"byteLength":480,"target":34963}],"buffers":[{"byteLength":20640,"uri":"data:application/octet-stream;base64,"}],"accessors":[{"bufferView":0,"componentType":5126,"count":200,"max":[0.3125,0.125,0.3125],"min":[-0.3125,0,-0.3125],"type":"VEC3"},{"bufferView":1,"componentType":5126,"count":200,"max":[1,1,1],"min":[-1,-1,-1],"type":"VEC3"},{"bufferView":2,"componentType":5126,"count":200,"max":[0.59375,0.625],"min":[0,0],"type":"VEC2"},{"bufferView":3,"componentType":5123,"count":240,"max":[199],"min":[0],"type":"SCALAR"},{"bufferView":4,"componentType":5126,"count":200,"max":[0.625,0.1875,0.625],"min":[-0.625,0,-0.625],"type":"VEC3"},{"bufferView":5,"componentType":5126,"count":200,"max":[1,1,1],"min":[-1,-1,-1],"type":"VEC3"},{"bufferView":6,"componentType":5126,"count":200,"max":[0.5768593549728394,0.578125],"min":[0,0],"type":"VEC2"},{"bufferView":7,"componentType":5123,"count":240,"max":[199],"min":[0],"type":"SCALAR"},{"bufferView":8,"componentType":5126,"count":200,"max":[0.625,0.1875,0.625],"min":[-0.625,0,-0.625],"type":"VEC3"},{"bufferView":9,"componentType":5126,"count":200,"max":[1,1,1],"min":[-1,-1,-1],"type":"VEC3"},{"bufferView":10,"componentType":5126,"count":200,"max":[0.5768593549728394,0.578125],"min":[0,0],"type":"VEC2"},{"bufferView":11,"componentType":5123,"count":240,"max":[199],"min":[0],"type":"SCALAR"}],"materials":[{"pbrMetallicRoughness":{"metallicFactor":0,"roughnessFactor":1,"baseColorTexture":{"index":0}},"alphaMode":"MASK","alphaCutoff":0.05,"doubleSided":true},{"pbrMetallicRoughness":{"metallicFactor":0,"roughnessFactor":1,"baseColorTexture":{"index":1}},"alphaMode":"MASK","alphaCutoff":0.05,"doubleSided":true}],"textures":[{"sampler":0,"source":0,"name":"textture 1.png"},{"sampler":1,"source":1,"name":"texture.png"}],"samplers":[{"magFilter":9728,"minFilter":9728,"wrapS":33071,"wrapT":33071},{"magFilter":9728,"minFilter":9728,"wrapS":33071,"wrapT":33071}],"images":[{"mimeType":"image/png","uri":"data:image/png;base64,"},{"mimeType":"image/png","uri":"data:image/png;base64,"}],"meshes":[{"primitives":[{"mode":4,"attributes":{"POSITION":0,"NORMAL":1,"TEXCOORD_0":2},"indices":3,"material":0}]},{"primitives":[{"mode":4,"attributes":{"POSITION":4,"NORMAL":5,"TEXCOORD_0":6},"indices":7,"material":1}]},{"primitives":[{"mode":4,"attributes":{"POSITION":8,"NORMAL":9,"TEXCOORD_0":10},"indices":11,"material":1}]}]}