{"asset":{"version":"2.0","generator":"Blockbench 5.1.4 glTF exporter"},"scenes":[{"nodes":[18],"name":"blockbench_export"}],"scene":0,"nodes":[{"translation":[-0.5625,0.75,-0.125],"name":"sphere","mesh":0},{"translation":[-0.5625,0.75,0.125],"name":"sphere","mesh":1},{"rotation":[0.7071067811865475,0,0,0.7071067811865476],"translation":[-0.5625,0.5625,0],"name":"circle","mesh":2},{"translation":[0.0625,0.1875,0],"name":"eyes","children":[0,1,2]},{"translation":[0,-0.1875,-0.25],"name":"cylinder","mesh":3},{"translation":[0,-0.1875,0.25],"name":"cylinder","mesh":4},{"rotation":[-5.336750069161486e-18,-0.9961946980917455,0.08715574274765817,6.099933241728101e-17],"translation":[0,0.75,-0.5625],"name":"circle","mesh":5},{"rotation":[0.6695807158758447,-0.22729202565684348,0.31274533209597205,0.6341847973991336],"translation":[-0.3125,0.9375,0.375],"name":"pyramid","mesh":6},{"rotation":[0.64722295378325,-0.2847849154995483,0.36682808874354406,0.6045139810697172],"translation":[0,-0.375,0],"name":"pyramid","mesh":7},{"rotation":[0.3265055756219768,-0.6272113751262499,0.696364240320019,0.12278780396897276],"translation":[0.25,-0.0625,-0.125],"name":"pyramid","mesh":8},{"rotation":[0.3265055756219768,-0.6272113751262499,0.696364240320019,0.12278780396897276],"translation":[-0.351784375,1.0224575,0.0625],"name":"pyramid","mesh":9},{"rotation":[0.27534418162542873,0.6824562522622015,-0.5221902923602535,0.43099459852527877],"translation":[0.335715625,1.0224575,-0.35757625],"name":"pyramid","mesh":10},{"rotation":[0.3480045083443649,0.6484241025584596,-0.47216553485935187,0.48528213761093186],"translation":[0.523215625,0.6474575,-0.04507625],"name":"pyramid","mesh":11},{"rotation":[0.6080926990408525,0.4144686043356697,-0.19473759040405375,0.6484722941474649],"translation":[0.398215625,0.8349575,0.32992375],"name":"pyramid","mesh":12},{"translation":[0,0.1875,0],"name":"body","children":[4,5,6,7,8,9,10,11,12,13]},{"translation":[0,-0.0625,0],"name":"torus","mesh":13},{"name":"pyramid","mesh":14},{"translation":[0,1.625,0],"name":"Flower","children":[15,16]},{"name":"root","children":[3,14,17]}],"bufferViews":[{"buffer":0,"byteOffset":0,"byteLength":1344,"target":34962,"byteStride":12},{"buffer":0,"byteOffset":1344,"byteLength":1344,"target":34962,"byteStride":12},{"buffer":0,"byteOffset":2688,"byteLength":896,"target":34962,"byteStride":8},{"buffer":0,"byteOffset":3584,"byteLength":288,"target":34963},{"buffer":0,"byteOffset":3872,"byteLength":1344,"target":34962,"byteStride":12},{"buffer":0,"byteOffset":5216,"byteLength":1344,"target":34962,"byteStride":12},{"buffer":0,"byteOffset":6560,"byteLength":896,"target":34962,"byteStride":8},{"buffer":0,"byteOffset":7456,"byteLength":288,"target":34963},{"buffer":0,"byteOffset":7744,"byteLength":3936,"target":34962,"byteStride":12},{"buffer":0,"byteOffset":11680,"byteLength":3936,"target":34962,"byteStride":12},{"buffer":0,"byteOffset":15616,"byteLength":2624,"target":34962,"byteStride":8},{"buffer":0,"byteOffset":18240,"byteLength":864,"target":34963},{"buffer":0,"byteOffset":19104,"byteLength":960,"target":34962,"byteStride":12},{"buffer":0,"byteOffset":20064,"byteLength":960,"target":34962,"byteStride":12},{"buffer":0,"byteOffset":21024,"byteLength":640,"target":34962,"byteStride":8},{"buffer":0,"byteOffset":21664,"byteLength":192,"target":34963},{"buffer":0,"byteOffset":21856,"byteLength":960,"target":34962,"byteStride":12},{"buffer":0,"byteOffset":22816,"byteLength":960,"target":34962,"byteStride":12},{"buffer":0,"byteOffset":23776,"byteLength":640,"target":34962,"byteStride":8},{"buffer":0,"byteOffset":24416,"byteLength":192,"target":34963},{"buffer":0,"byteOffset":24608,"byteLength":19716,"target":34962,"byteStride":12},{"buffer":0,"byteOffset":44324,"byteLength":19716,"target":34962,"byteStride":12},{"buffer":0,"byteOffset":64040,"byteLength":13144,"target":34962,"byteStride":8},{"buffer":0,"byteOffset":77184,"byteLength":4700,"target":34963},{"buffer":0,"byteOffset":81884,"byteLength":192,"target":34962,"byteStride":12},{"buffer":0,"byteOffset":82076,"byteLength":192,"target":34962,"byteStride":12},{"buffer":0,"byteOffset":82268,"byteLength":128,"target":34962,"byteStride":8},{"buffer":0,"byteOffset":82396,"byteLength":36,"target":34963},{"buffer":0,"byteOffset":82432,"byteLength":192,"target":34962,"byteStride":12},{"buffer":0,"byteOffset":82624,"byteLength":192,"target":34962,"byteStride":12},{"buffer":0,"byteOffset":82816,"byteLength":128,"target":34962,"byteStride":8},{"buffer":0,"byteOffset":82944,"byteLength":36,"target":34963},{"buffer":0,"byteOffset":82980,"byteLength":192,"target":34962,"byteStride":12},{"buffer":0,"byteOffset":83172,"byteLength":192,"target":34962,"byteStride":12},{"buffer":0,"byteOffset":83364,"byteLength":128,"target":34962,"byteStride":8},{"buffer":0,"byteOffset":83492,"byteLength":36,"target":34963},{"buffer":0,"byteOffset":83528,"byteLength":192,"target":34962,"byteStride":12},{"buffer":0,"byteOffset":83720,"byteLength":192,"target":34962,"byteStride":12},{"buffer":0,"byteOffset":83912,"byteLength":128,"target":34962,"byteStride":8},{"buffer":0,"byteOffset":84040,"byteLength":36,"target":34963},{"buffer":0,"byteOffset":84076,"byteLength":192,"target":34962,"byteStride":12},{"buffer":0,"byteOffset":84268,"byteLength":192,"target":34962,"byteStride":12},{"buffer":0,"byteOffset":84460,"byteLength":128,"target":34962,"byteStride":8},{"buffer":0,"byteOffset":84588,"byteLength":36,"target":34963},{"buffer":0,"byteOffset":84624,"byteLength":192,"target":34962,"byteStride":12},{"buffer":0,"byteOffset":84816,"byteLength":192,"target":34962,"byteStride":12},{"buffer":0,"byteOffset":85008,"byteLength":128,"target":34962,"byteStride":8},{"buffer":0,"byteOffset":85136,"byteLength":36,"target":34963},{"buffer":0,"byteOffset":85172,"byteLength":192,"target":34962,"byteStride":12},{"buffer":0,"byteOffset":85364,"byteLength":192,"target":34962,"byteStride":12},{"buffer":0,"byteOffset":85556,"byteLength":128,"target":34962,"byteStride":8},{"buffer":0,"byteOffset":85684,"byteLength":36,"target":34963},{"buffer":0,"byteOffset":85720,"byteLength":3072,"target":34962,"byteStride":12},{"buffer":0,"byteOffset":88792,"byteLength":3072,"target":34962,"byteStride":12},{"buffer":0,"byteOffset":91864,"byteLength":2048,"target":34962,"byteStride":8},{"buffer":0,"byteOffset":93912,"byteLength":768,"target":34963},{"buffer":0,"byteOffset":94680,"byteLength":192,"target":34962,"byteStride":12},{"buffer":0,"byteOffset":94872,"byteLength":192,"target":34962,"byteStride":12},{"buffer":0,"byteOffset":95064,"byteLength":128,"target":34962,"byteStride":8},{"buffer":0,"byteOffset":95192,"byteLength":36,"target":34963}],"buffers":[{"byteLength":95228,"uri":"data:application/octet-stream;base64,"}],"accessors":[{"bufferView":0,"componentType":5126,"count":112,"max":[0.0625,0.0625,0.0625],"min":[-0.0625,-0.0625,-0.0625],"type":"VEC3"},{"bufferView":1,"componentType":5126,"count":112,"max":[0.9238816499710083,0.9238816499710083,0.9238816499710083],"min":[-0.9238816499710083,-0.9238816499710083,-0.9238816499710083],"type":"VEC3"},{"bufferView":2,"componentType":5126,"count":112,"max":[0.8017749786376953,0.8125],"min":[0.005362499970942736,0],"type":"VEC2"},{"bufferView":3,"componentType":5123,"count":144,"max":[111],"min":[0],"type":"SCALAR"},{"bufferView":4,"componentType":5126,"count":112,"max":[0.0625,0.0625,0.0625],"min":[-0.0625,-0.0625,-0.0625],"type":"VEC3"},{"bufferView":5,"componentType":5126,"count":112,"max":[0.9238816499710083,0.9238816499710083,0.9238816499710083],"min":[-0.9238816499710083,-0.9238816499710083,-0.9238816499710083],"type":"VEC3"},{"bufferView":6,"componentType":5126,"count":112,"max":[0.7995562553405762,0.5625],"min":[0.005362499970942736,0],"type":"VEC2"},{"bufferView":7,"componentType":5123,"count":144,"max":[111],"min":[0],"type":"SCALAR"},{"bufferView":8,"componentType":5126,"count":328,"max":[0.0625,0.125,0.0625],"min":[-0.0625,-0.125,-0.0625],"type":"VEC3"},{"bufferView":9,"componentType":5126,"count":328,"max":[1,1,1],"min":[-1,-1,-1],"type":"VEC3"},{"bufferView":10,"componentType":5126,"count":328,"max":[0.5,0.53125],"min":[0,0],"type":"VEC2"},{"bufferView":11,"componentType":5123,"count":432,"max":[327],"min":[0],"type":"SCALAR"},{"bufferView":12,"componentType":5126,"count":80,"max":[0.15625,0.25,0.15625],"min":[-0.15625,0,-0.15625],"type":"VEC3"},{"bufferView":13,"componentType":5126,"count":80,"max":[1,1,1],"min":[-1,-1,-1],"type":"VEC3"},{"bufferView":14,"componentType":5126,"count":80,"max":[0.875,1],"min":[0,0],"type":"VEC2"},{"bufferView":15,"componentType":5123,"count":96,"max":[79],"min":[0],"type":"SCALAR"},{"bufferView":16,"componentType":5126,"count":80,"max":[0.15625,0.25,0.15625],"min":[-0.15625,0,-0.15625],"type":"VEC3"},{"bufferView":17,"componentType":5126,"count":80,"max":[1,1,1],"min":[-1,-1,-1],"type":"VEC3"},{"bufferView":18,"componentType":5126,"count":80,"max":[0.6875,1],"min":[0,0],"type":"VEC2"},{"bufferView":19,"componentType":5123,"count":96,"max":[79],"min":[0],"type":"SCALAR"},{"bufferView":20,"componentType":5126,"count":1643,"max":[0.5034593939781189,0.625,0.125],"min":[-0.5034593939781189,-0.923106849193573,-1.480206847190857],"type":"VEC3"},{"bufferView":21,"componentType":5126,"count":1643,"max":[1,1,1],"min":[-1,-0.984808087348938,-1],"type":"VEC3"},{"bufferView":22,"componentType":5126,"count":1643,"max":[0.9453125,0.95033860206604],"min":[0,0],"type":"VEC2"},{"bufferView":23,"componentType":5123,"count":2349,"max":[1642],"min":[0],"type":"SCALAR"},{"bufferView":24,"componentType":5126,"count":16,"max":[0.03125,0.125,0.03125],"min":[-0.03125,0,-0.03125],"type":"VEC3"},{"bufferView":25,"componentType":5126,"count":16,"max":[0.9701424837112427,0.24253562092781067,0.9701424837112427],"min":[-0.9701424837112427,-1,-0.9701424837112427],"type":"VEC3"},{"bufferView":26,"componentType":5126,"count":16,"max":[0.03125,0.06442499160766602],"min":[0,0],"type":"VEC2"},{"bufferView":27,"componentType":5123,"count":18,"max":[15],"min":[0],"type":"SCALAR"},{"bufferView":28,"componentType":5126,"count":16,"max":[0.13501937687397003,0.551560640335083,-0.6291924715042114],"min":[0.07251937687397003,0.4265606105327606,-0.6916924715042114],"type":"VEC3"},{"bufferView":29,"componentType":5126,"count":16,"max":[0.9701424837112427,0.24253562092781067,0.9701424837112427],"min":[-0.9701424837112427,-1,-0.9701424837112427],"type":"VEC3"},{"bufferView":30,"componentType":5126,"count":16,"max":[0.03125,0.06442499160766602],"min":[0,0],"type":"VEC2"},{"bufferView":31,"componentType":5123,"count":18,"max":[15],"min":[0],"type":"SCALAR"},{"bufferView":32,"componentType":5126,"count":16,"max":[0.13501937687397003,0.551560640335083,-0.6291924715042114],"min":[0.07251937687397003,0.4265606105327606,-0.6916924715042114],"type":"VEC3"},{"bufferView":33,"componentType":5126,"count":16,"max":[0.9701424837112427,0.24253562092781067,0.9701424837112427],"min":[-0.9701424837112427,-1,-0.9701424837112427],"type":"VEC3"},{"bufferView":34,"componentType":5126,"count":16,"max":[0.03125,0.06442499160766602],"min":[0,0],"type":"VEC2"},{"bufferView":35,"componentType":5123,"count":18,"max":[15],"min":[0],"type":"SCALAR"},{"bufferView":36,"componentType":5126,"count":16,"max":[-0.22447624802589417,0.4332687556743622,0.03125],"min":[-0.28697624802589417,0.3082687556743622,-0.03125],"type":"VEC3"},{"bufferView":37,"componentType":5126,"count":16,"max":[0.9701424837112427,0.24253562092781067,0.9701424837112427],"min":[-0.9701424837112427,-1,-0.9701424837112427],"type":"VEC3"},{"bufferView":38,"componentType":5126,"count":16,"max":[0.03125,0.06442499160766602],"min":[0,0],"type":"VEC2"},{"bufferView":39,"componentType":5123,"count":18,"max":[15],"min":[0],"type":"SCALAR"},{"bufferView":40,"componentType":5126,"count":16,"max":[0.03125,0.10000000149011612,0.03125],"min":[-0.03125,-0.02500000037252903,-0.03125],"type":"VEC3"},{"bufferView":41,"componentType":5126,"count":16,"max":[0.9701424837112427,0.24253562092781067,0.9701424837112427],"min":[-0.9701424837112427,-1,-0.9701424837112427],"type":"VEC3"},{"bufferView":42,"componentType":5126,"count":16,"max":[0.03125,0.06442499160766602],"min":[0,0],"type":"VEC2"},{"bufferView":43,"componentType":5123,"count":18,"max":[15],"min":[0],"type":"SCALAR"},{"bufferView":44,"componentType":5126,"count":16,"max":[0.03125,0.10000000149011612,0.03125],"min":[-0.03125,-0.02500000037252903,-0.03125],"type":"VEC3"},{"bufferView":45,"componentType":5126,"count":16,"max":[0.9701424837112427,0.24253562092781067,0.9701424837112427],"min":[-0.9701424837112427,-1,-0.9701424837112427],"type":"VEC3"},{"bufferView":46,"componentType":5126,"count":16,"max":[0.03125,0.06442499160766602],"min":[0,0],"type":"VEC2"},{"bufferView":47,"componentType":5123,"count":18,"max":[15],"min":[0],"type":"SCALAR"},{"bufferView":48,"componentType":5126,"count":16,"max":[0.03125,0.10000000149011612,0.03125],"min":[-0.03125,-0.02500000037252903,-0.03125],"type":"VEC3"},{"bufferView":49,"componentType":5126,"count":16,"max":[0.9701424837112427,0.24253562092781067,0.9701424837112427],"min":[-0.9701424837112427,-1,-0.9701424837112427],"type":"VEC3"},{"bufferView":50,"componentType":5126,"count":16,"max":[0.03125,0.06442499160766602],"min":[0,0],"type":"VEC2"},{"bufferView":51,"componentType":5123,"count":18,"max":[15],"min":[0],"type":"SCALAR"},{"bufferView":52,"componentType":5126,"count":256,"max":[0.21875,0.1352987438440323,0.21875],"min":[-0.21875,-0.1352987438440323,-0.21875],"type":"VEC3"},{"bufferView":53,"componentType":5126,"count":256,"max":[0.9584459662437439,0.8663684725761414,0.9584459662437439],"min":[-0.9584459662437439,-0.8663684725761414,-0.9584459662437439],"type":"VEC3"},{"bufferView":54,"componentType":5126,"count":256,"max":[0.9491031169891357,0.959922194480896],"min":[0,0],"type":"VEC2"},{"bufferView":55,"componentType":5123,"count":384,"max":[255],"min":[0],"type":"SCALAR"},{"bufferView":56,"componentType":5126,"count":16,"max":[0.09375,0.25,0.09375],"min":[-0.09375,0,-0.09375],"type":"VEC3"},{"bufferView":57,"componentType":5126,"count":16,"max":[0.936329185962677,0.3511234521865845,0.936329185962677],"min":[-0.936329185962677,-1,-0.936329185962677],"type":"VEC3"},{"bufferView":58,"componentType":5126,"count":16,"max":[0.7643415331840515,0.7605797052383423],"min":[0,0.125],"type":"VEC2"},{"bufferView":59,"componentType":5123,"count":18,"max":[15],"min":[0],"type":"SCALAR"}],"materials":[{"pbrMetallicRoughness":{"metallicFactor":0,"roughnessFactor":1,"baseColorTexture":{"index":0}},"alphaMode":"MASK","alphaCutoff":0.05,"doubleSided":true},{"pbrMetallicRoughness":{"metallicFactor":0,"roughnessFactor":1,"baseColorTexture":{"index":1}},"alphaMode":"MASK","alphaCutoff":0.05,"doubleSided":true},{"pbrMetallicRoughness":{"metallicFactor":0,"roughnessFactor":1,"baseColorTexture":{"index":2}},"alphaMode":"MASK","alphaCutoff":0.05,"doubleSided":true},{"pbrMetallicRoughness":{"metallicFactor":0,"roughnessFactor":1,"baseColorTexture":{"index":3}},"alphaMode":"MASK","alphaCutoff":0.05,"doubleSided":true},{"pbrMetallicRoughness":{"metallicFactor":0,"roughnessFactor":1},"alphaMode":"MASK","alphaCutoff":0.05,"doubleSided":true},{"pbrMetallicRoughness":{"metallicFactor":0,"roughnessFactor":1,"baseColorTexture":{"index":4}},"alphaMode":"MASK","alphaCutoff":0.05,"doubleSided":true}],"textures":[{"sampler":0,"source":0,"name":"eyes.png"},{"sampler":1,"source":1,"name":"mouth.png"},{"sampler":2,"source":2,"name":"Legs.png"},{"sampler":3,"source":3,"name":"cactus arms texture.png"},{"sampler":4,"source":4,"name":"flower.png"}],"samplers":[{"magFilter":9728,"minFilter":9728,"wrapS":33071,"wrapT":33071},{"magFilter":9728,"minFilter":9728,"wrapS":33071,"wrapT":33071},{"magFilter":9728,"minFilter":9728,"wrapS":33071,"wrapT":33071},{"magFilter":9728,"minFilter":9728,"wrapS":33071,"wrapT":33071},{"magFilter":9728,"minFilter":9728,"wrapS":33071,"wrapT":33071}],"images":[{"mimeType":"image/png","uri":"data:image/png;base64,"},{"mimeType":"image/png","uri":"data:image/png;base64,"},{"mimeType":"image/png","uri":"data:image/png;base64,"},{"mimeType":"image/png","uri":"data:image/png;base64,"},{"mimeType":"image/png","uri":"data:image/png;base64,"}],"meshes":[{"primitives":[{"mode":4,"attributes":{"POSITION":0,"NORMAL":1,"TEXCOORD_0":2},"indices":3,"material":0}]},{"primitives":[{"mode":4,"attributes":{"POSITION":4,"NORMAL":5,"TEXCOORD_0":6},"indices":7,"material":0}]},{"primitives":[{"mode":4,"attributes":{"POSITION":8,"NORMAL":9,"TEXCOORD_0":10},"indices":11,"material":1}]},{"primitives":[{"mode":4,"attributes":{"POSITION":12,"NORMAL":13,"TEXCOORD_0":14},"indices":15,"material":2}]},{"primitives":[{"mode":4,"attributes":{"POSITION":16,"NORMAL":17,"TEXCOORD_0":18},"indices":19,"material":2}]},{"primitives":[{"mode":4,"attributes":{"POSITION":20,"NORMAL":21,"TEXCOORD_0":22},"indices":23,"material":3}]},{"primitives":[{"mode":4,"attributes":{"POSITION":24,"NORMAL":25,"TEXCOORD_0":26},"indices":27,"material":4}]},{"primitives":[{"mode":4,"attributes":{"POSITION":28,"NORMAL":29,"TEXCOORD_0":30},"indices":31,"material":4}]},{"primitives":[{"mode":4,"attributes":{"POSITION":32,"NORMAL":33,"TEXCOORD_0":34},"indices":35,"material":4}]},{"primitives":[{"mode":4,"attributes":{"POSITION":36,"NORMAL":37,"TEXCOORD_0":38},"indices":39,"material":4}]},{"primitives":[{"mode":4,"attributes":{"POSITION":40,"NORMAL":41,"TEXCOORD_0":42},"indices":43,"material":4}]},{"primitives":[{"mode":4,"attributes":{"POSITION":44,"NORMAL":45,"TEXCOORD_0":46},"indices":47,"material":4}]},{"primitives":[{"mode":4,"attributes":{"POSITION":48,"NORMAL":49,"TEXCOORD_0":50},"indices":51,"material":4}]},{"primitives":[{"mode":4,"attributes":{"POSITION":52,"NORMAL":53,"TEXCOORD_0":54},"indices":55,"material":5}]},{"primitives":[{"mode":4,"attributes":{"POSITION":56,"NORMAL":57,"TEXCOORD_0":58},"indices":59,"material":5}]}]}